<svg width="309" height="70" viewBox="0 0 309 70" fill="none" xmlns="http://www.w3.org/2000/svg">
<path d="M0.392 53V1.88H14.432V40.76H37.616V53H0.392ZM37.6289 56.816C39.8369 57.632 41.7089 58.04 43.2449 58.04C46.1729 58.04 47.7809 56.36 48.0689 53L34.3169 15.128H48.3569L55.5569 38.96L61.3889 15.128H74.1329L61.3169 57.536C60.5969 59.984 59.4209 62.12 57.7889 63.944C56.1569 65.816 54.2129 67.256 51.9569 68.264C49.7009 69.32 47.2769 69.848 44.6849 69.848C42.2369 69.848 39.8849 69.392 37.6289 68.48V56.816ZM92.2027 53.72C88.8907 53.72 85.6267 53.192 82.4107 52.136C79.2427 51.032 76.5547 49.448 74.3467 47.384L79.0267 38.96C81.3787 40.496 83.6347 41.696 85.7947 42.56C88.0027 43.424 89.9947 43.856 91.7707 43.856C93.7387 43.856 94.7227 43.28 94.7227 42.128C94.7227 41.504 94.3147 41 93.4987 40.616C92.7307 40.232 91.4827 39.776 89.7547 39.248C86.7787 38.192 84.2827 37.208 82.2667 36.296C80.2987 35.384 78.8107 34.28 77.8027 32.984C76.8427 31.64 76.3627 29.864 76.3627 27.656C76.3627 23.768 77.8027 20.576 80.6827 18.08C83.5627 15.584 87.5467 14.336 92.6347 14.336C95.1787 14.336 97.7227 14.744 100.267 15.56C102.859 16.328 105.355 17.744 107.755 19.808L102.571 28.16C100.171 26.672 98.1307 25.616 96.4507 24.992C94.8187 24.368 93.3547 24.056 92.0587 24.056C90.0427 24.056 89.0347 24.728 89.0347 26.072C89.0347 26.792 89.4187 27.344 90.1867 27.728C90.9547 28.112 92.1787 28.544 93.8587 29.024C97.1227 29.984 99.7867 30.968 101.851 31.976C103.915 32.936 105.427 34.112 106.387 35.504C107.395 36.896 107.899 38.72 107.899 40.976C107.899 44.96 106.483 48.08 103.651 50.336C100.867 52.592 97.0507 53.72 92.2027 53.72ZM131.729 53.72C127.313 53.72 123.545 52.832 120.425 51.056C117.353 49.28 115.001 46.928 113.369 44C111.785 41.072 110.993 37.928 110.993 34.568C110.993 30.92 111.785 27.584 113.369 24.56C114.953 21.488 117.281 19.04 120.353 17.216C123.425 15.344 127.217 14.408 131.729 14.408C136.241 14.408 140.033 15.32 143.105 17.144C146.177 18.968 148.505 21.368 150.089 24.344C151.673 27.32 152.465 30.56 152.465 34.064C152.465 35.552 152.345 36.944 152.105 38.24H125.537C125.681 40.256 126.425 41.72 127.769 42.632C129.113 43.496 130.577 43.928 132.161 43.928C133.649 43.928 135.041 43.592 136.337 42.92C137.681 42.248 138.569 41.312 139.001 40.112L150.593 43.424C149.057 46.448 146.681 48.92 143.465 50.84C140.249 52.76 136.337 53.72 131.729 53.72ZM125.249 30.032H137.777C137.585 28.208 136.913 26.768 135.761 25.712C134.657 24.656 133.241 24.128 131.513 24.128C129.785 24.128 128.369 24.656 127.265 25.712C126.161 26.768 125.489 28.208 125.249 30.032ZM156.956 11.96V0.439999H170.636V11.96H156.956ZM156.956 53V15.128H170.636V53H156.956Z" fill="#6A37FF"/>
<path d="M196.35 1.88H200.598L221.838 53H216.51L209.886 37.016H186.918L180.366 53H174.966L196.35 1.88ZM208.734 33.056L198.438 7.784L187.998 33.056H208.734ZM247.31 53.72C244.19 53.72 241.382 52.904 238.886 51.272C236.438 49.64 234.494 47.624 233.054 45.224V68.336H228.158V15.488H232.55V22.76C234.038 20.408 236.006 18.512 238.454 17.072C240.95 15.584 243.638 14.84 246.518 14.84C249.11 14.84 251.486 15.392 253.646 16.496C255.806 17.552 257.678 18.992 259.262 20.816C260.894 22.64 262.142 24.728 263.006 27.08C263.87 29.384 264.302 31.784 264.302 34.28C264.302 37.784 263.582 41.024 262.142 44C260.75 46.928 258.758 49.28 256.166 51.056C253.622 52.832 250.67 53.72 247.31 53.72ZM245.942 49.4C248.678 49.4 251.03 48.68 252.998 47.24C255.014 45.752 256.574 43.856 257.678 41.552C258.782 39.248 259.334 36.824 259.334 34.28C259.334 31.592 258.71 29.096 257.462 26.792C256.214 24.488 254.534 22.64 252.422 21.248C250.358 19.856 248.006 19.16 245.366 19.16C243.734 19.16 242.006 19.592 240.182 20.456C238.406 21.272 236.822 22.4 235.43 23.84C234.086 25.232 233.294 26.768 233.054 28.448V39.968C234.158 42.608 235.886 44.84 238.238 46.664C240.59 48.488 243.158 49.4 245.942 49.4ZM291.747 53.72C288.627 53.72 285.819 52.904 283.323 51.272C280.875 49.64 278.931 47.624 277.491 45.224V68.336H272.595V15.488H276.987V22.76C278.475 20.408 280.443 18.512 282.891 17.072C285.387 15.584 288.075 14.84 290.955 14.84C293.547 14.84 295.923 15.392 298.083 16.496C300.243 17.552 302.115 18.992 303.699 20.816C305.331 22.64 306.579 24.728 307.443 27.08C308.307 29.384 308.739 31.784 308.739 34.28C308.739 37.784 308.019 41.024 306.579 44C305.187 46.928 303.195 49.28 300.603 51.056C298.059 52.832 295.107 53.72 291.747 53.72ZM290.379 49.4C293.115 49.4 295.467 48.68 297.435 47.24C299.451 45.752 301.011 43.856 302.115 41.552C303.219 39.248 303.771 36.824 303.771 34.28C303.771 31.592 303.147 29.096 301.899 26.792C300.651 24.488 298.971 22.64 296.859 21.248C294.795 19.856 292.443 19.16 289.803 19.16C288.171 19.16 286.443 19.592 284.619 20.456C282.843 21.272 281.259 22.4 279.867 23.84C278.523 25.232 277.731 26.768 277.491 28.448V39.968C278.595 42.608 280.323 44.84 282.675 46.664C285.027 48.488 287.595 49.4 290.379 49.4Z" fill="#F59138"/>
</svg>
